<svg width="219" height="201" viewBox="0 0 219 201" fill="none" xmlns="http://www.w3.org/2000/svg">
<g id="triangles" clip-path="url(#clip0_2_2)">
<g id="lightGroup">
<path id="lightOne" d="M77.7516 95.7107C81.0955 97.6167 81.1222 102.428 77.7996 104.371L17.9924 139.344C14.6698 141.287 10.4899 138.904 10.4685 135.055L10.0847 65.7743C10.0634 61.9253 14.2167 59.4966 17.5606 61.4026L77.7516 95.7107Z" fill="#51C2AE" fill-opacity="0.68"/>
</g>
<g id="darkGroup">
<path id="darkOne"  d="M100.775 97.1391C104.098 99.0805 104.074 103.892 100.731 105.799L40.5556 140.135C37.2125 142.043 33.0581 139.616 33.0776 135.767L33.4295 66.4858C33.449 62.6368 37.6279 60.2524 40.9514 62.1938L100.775 97.1391Z" fill="#62B479" fill-opacity="0.63"/>
<path id="darkTwo"  d="M77.6203 95.875C80.9494 97.8069 80.9387 102.618 77.6011 104.535L17.5244 139.043C14.1868 140.96 10.0255 138.545 10.034 134.696L10.1877 65.4144C10.1963 61.5654 14.3683 59.169 17.6973 61.1009L77.6203 95.875Z" fill="#62B479" fill-opacity="0.63"/>
</g>
</g>
<defs>
<clipPath id="clip0_2_2">
<rect width="219" height="201" fill="white"/>
</clipPath>
</defs>
</svg>
